<svg width="20" height="18" viewBox="0 0 20 18" fill="none" xmlns="http://www.w3.org/2000/svg">
<path d="M3.83334 17.25C3.56181 17.25 3.33436 17.158 3.151 16.974C2.96764 16.79 2.87564 16.5626 2.875 16.2917C2.87436 16.0208 2.96636 15.7933 3.151 15.6093C3.33564 15.4253 3.56309 15.3333 3.83334 15.3333H15.3333C15.6049 15.3333 15.8326 15.4253 16.0166 15.6093C16.2006 15.7933 16.2923 16.0208 16.2917 16.2917C16.291 16.5626 16.199 16.7903 16.0157 16.975C15.8323 17.1596 15.6049 17.2513 15.3333 17.25H3.83334ZM4.50417 13.8958C4.04097 13.8958 3.62985 13.7441 3.27079 13.4406C2.91174 13.1372 2.69196 12.7538 2.61146 12.2906L1.65313 6.20521C1.62118 6.20521 1.58541 6.20936 1.54579 6.21767C1.50618 6.22597 1.47009 6.22981 1.4375 6.22917C1.0382 6.22917 0.698947 6.08957 0.419752 5.81038C0.140558 5.53118 0.000641067 5.19161 2.17803e-06 4.79167C-0.000636711 4.39172 0.13928 4.05247 0.419752 3.77392C0.700224 3.49536 1.03947 3.35545 1.4375 3.35417C1.83553 3.35289 2.1751 3.49281 2.45621 3.77392C2.73732 4.05503 2.87692 4.39428 2.875 4.79167C2.875 4.90347 2.86286 5.00729 2.83859 5.10313C2.81431 5.19896 2.78652 5.28681 2.75521 5.36667L5.75 6.70834L8.74479 2.61146C8.5691 2.48368 8.42535 2.31597 8.31354 2.10834C8.20174 1.9007 8.14584 1.67709 8.14584 1.4375C8.14584 1.0382 8.28575 0.698627 8.56559 0.418794C8.84542 0.138961 9.18467 -0.000636706 9.58334 2.18299e-06C9.982 0.000641072 10.3216 0.140558 10.602 0.419752C10.8825 0.698947 11.0221 1.0382 11.0208 1.4375C11.0208 1.67709 10.9649 1.9007 10.8531 2.10834C10.7413 2.31597 10.5976 2.48368 10.4219 2.61146L13.4167 6.70834L16.4115 5.36667C16.3795 5.28681 16.3514 5.19896 16.3271 5.10313C16.3029 5.00729 16.291 4.90347 16.2917 4.79167C16.2917 4.39236 16.4316 4.05279 16.7114 3.77296C16.9913 3.49313 17.3305 3.35353 17.7292 3.35417C18.1278 3.35481 18.4674 3.49472 18.7479 3.77392C19.0284 4.05311 19.1679 4.39236 19.1667 4.79167C19.1654 5.19097 19.0258 5.53054 18.7479 5.81038C18.47 6.09021 18.1304 6.22981 17.7292 6.22917C17.6972 6.22917 17.6614 6.22534 17.6218 6.21767C17.5822 6.21 17.5461 6.20585 17.5135 6.20521L16.5552 12.2906C16.4754 12.7538 16.2559 13.1372 15.8968 13.4406C15.5378 13.7441 15.1263 13.8958 14.6625 13.8958H4.50417Z" fill="#E1E1E2"/>
</svg>
